<svg width="24" height="18" viewBox="0 0 24 18" fill="none" xmlns="http://www.w3.org/2000/svg">
<path d="M21.5517 14.0547H2.44854C1.51053 14.0547 0.75 14.8156 0.75 15.754C0.75 16.6916 1.51053 17.4525 2.44854 17.4525H21.5517C22.4893 17.4525 23.2499 16.6916 23.2499 15.754C23.2499 14.8159 22.4893 14.0547 21.5517 14.0547Z" fill="#AAAAAA"/>
<path d="M21.5516 7.29395H2.4483C1.51029 7.29395 0.749756 8.05448 0.749756 8.99285C0.749756 9.93086 1.51029 10.6914 2.4483 10.6914H21.5516C22.4892 10.6914 23.2498 9.93086 23.2498 8.99285C23.2498 8.05484 22.4892 7.29395 21.5516 7.29395Z" fill="#AAAAAA"/>
<path d="M2.44854 3.92967H21.5517C22.4893 3.92967 23.2499 3.16914 23.2499 2.23077C23.2499 1.2924 22.4893 0.532227 21.5517 0.532227H2.44854C1.51053 0.532227 0.75 1.29276 0.75 2.23077C0.75 3.16878 1.51053 3.92967 2.44854 3.92967Z" fill="#AAAAAA"/>
</svg>
